<svg xmlns="http://www.w3.org/2000/svg" version="1.1" xmlns:xlink="http://www.w3.org/1999/xlink" xmlns:svgjs="http://svgjs.com/svgjs" width="512" height="512" x="0" y="0" viewBox="0 0 1580 1580" style="enable-background:new 0 0 512 512" xml:space="preserve" class=""><g><path fill="#ff725c" d="m114.245 1168.131 390.292-962.235 962.235 390.291-390.291 962.236z" data-original="#ff725c"></path><path fill="#ffdc70" d="m168.39 442.251 994.357-297.891 297.891 994.356-994.356 297.891z" data-original="#ffdc70"></path><path fill="#ccaf5a" d="M395.44 666.72c-7.03 0-13.53-4.58-15.65-11.66-2.59-8.65 2.32-17.75 10.97-20.34l691.78-206.98c8.65-2.58 17.75 2.33 20.34 10.97 2.59 8.65-2.32 17.75-10.97 20.34L400.13 666.03c-1.56.46-3.14.69-4.69.69zM444.1 829.34c-7.03 0-13.53-4.58-15.65-11.66-2.59-8.65 2.32-17.75 10.97-20.34l691.78-206.98c8.65-2.58 17.75 2.33 20.34 10.97 2.59 8.65-2.32 17.75-10.97 20.34L448.79 828.65c-1.56.47-3.14.69-4.69.69zM492.76 991.97c-7.03 0-13.53-4.58-15.65-11.66-2.59-8.65 2.32-17.75 10.97-20.34l691.78-206.98c8.65-2.59 17.75 2.33 20.34 10.97 2.59 8.65-2.32 17.75-10.97 20.34L497.45 991.28c-1.56.47-3.14.69-4.69.69zM541.42 1154.6c-7.03 0-13.53-4.58-15.65-11.66-2.59-8.65 2.32-17.75 10.97-20.34l691.78-206.98c8.65-2.59 17.75 2.32 20.34 10.97 2.59 8.64-2.32 17.75-10.97 20.34l-691.78 206.98c-1.56.47-3.14.69-4.69.69z" data-original="#ccaf5a"></path><path fill="#4a82a8" d="M737.4 174.57c-42.06 0-76.29-34.22-76.29-76.29S695.33 22 737.4 22s76.29 34.22 76.29 76.29-34.23 76.28-76.29 76.28zm0-119.89c-24.04 0-43.61 19.56-43.61 43.61 0 24.04 19.56 43.61 43.61 43.61 24.04 0 43.61-19.56 43.61-43.61s-19.57-43.61-43.61-43.61z" data-original="#4a82a8"></path><path fill="#4a82a8" d="M737.4 377.05c-9.02 0-16.34-7.32-16.34-16.34V158.23c0-9.02 7.32-16.34 16.34-16.34s16.34 7.32 16.34 16.34V360.7c0 9.03-7.32 16.35-16.34 16.35z" data-original="#4a82a8"></path></g></svg>